<svg xmlns="http://www.w3.org/2000/svg" xmlns:xlink="http://www.w3.org/1999/xlink" width="500" zoomAndPan="magnify" viewBox="0 0 375 374.999991" height="500" preserveAspectRatio="xMidYMid meet" version="1.0"><defs><g/></defs><g fill="#caa169" fill-opacity="1"><g transform="translate(67.72971, 296.437004)"><g><path d="M 63.65625 2.65625 C 46.863281 2.65625 33.78125 -1.804688 24.40625 -10.734375 C 15.03125 -19.671875 10.34375 -32.273438 10.34375 -48.546875 L 10.34375 -104.78125 C 10.34375 -121.050781 15.03125 -133.648438 24.40625 -142.578125 C 33.78125 -151.503906 46.863281 -155.96875 63.65625 -155.96875 C 80.632812 -155.96875 93.367188 -151.632812 101.859375 -142.96875 C 110.347656 -134.3125 114.59375 -121.582031 114.59375 -104.78125 L 114.59375 -74.015625 L 53.046875 -74.015625 L 53.046875 -44.5625 C 53.046875 -33.601562 56.582031 -28.125 63.65625 -28.125 C 71.09375 -28.125 74.8125 -33.070312 74.8125 -42.96875 L 74.8125 -59.15625 L 114.59375 -59.15625 L 114.59375 -44.296875 C 114.59375 -28.910156 110.125 -17.238281 101.1875 -9.28125 C 92.257812 -1.320312 79.75 2.65625 63.65625 2.65625 Z M 74.8125 -94.171875 L 74.8125 -109.5625 C 74.8125 -115.21875 73.789062 -119.238281 71.75 -121.625 C 69.71875 -124.007812 66.9375 -125.203125 63.40625 -125.203125 C 60.039062 -125.203125 57.472656 -123.875 55.703125 -121.21875 C 53.929688 -118.570312 53.046875 -113.890625 53.046875 -107.171875 L 53.046875 -94.171875 Z M 74.8125 -94.171875 "/></g></g></g><g fill="#caa169" fill-opacity="1"><g transform="translate(192.401718, 296.437004)"><g><path d="M 7.6875 -28.65625 L 60.21875 -182.765625 L 10.078125 -182.765625 L 10.078125 -214.859375 L 106.90625 -214.859375 L 106.90625 -188.078125 L 53.578125 -32.09375 L 107.4375 -32.09375 L 107.4375 0 L 7.6875 0 Z M 7.6875 -28.65625 "/></g></g></g></svg>