<svg xmlns="http://www.w3.org/2000/svg" xmlns:xlink="http://www.w3.org/1999/xlink" width="120" zoomAndPan="magnify" viewBox="0 0 90 52.499999" height="70" preserveAspectRatio="xMidYMid meet" version="1.0"><defs><g/><clipPath id="331a2ec20a"><path d="M 0.429688 0.484375 L 89.574219 0.484375 L 89.574219 51.515625 L 0.429688 51.515625 Z M 0.429688 0.484375 " clip-rule="nonzero"/></clipPath></defs><g clip-path="url(#331a2ec20a)"><path fill="#021832" d="M 85.296875 15.679688 L 85.296875 13.417969 C 85.296875 12.234375 84.335938 11.273438 83.148438 11.273438 L 73.570312 11.273438 C 73.085938 9.757812 71.695312 8.585938 70.050781 8.5 C 67.097656 8.339844 58.882812 12.425781 51.066406 7.898438 C 48.941406 6.664062 47.402344 4.949219 46.199219 2.796875 C 46.027344 2.484375 45.140625 1.101562 45 0.484375 C 44.863281 1.101562 43.976562 2.484375 43.800781 2.796875 C 42.601562 4.949219 41.0625 6.664062 38.9375 7.898438 C 31.109375 12.433594 22.9375 8.335938 19.953125 8.5 C 18.304688 8.585938 16.917969 9.757812 16.433594 11.273438 L 7.851562 11.273438 C 6.113281 11.273438 4.707031 12.679688 4.707031 14.414062 L 4.707031 15.679688 C 2.261719 16.203125 0.429688 18.375 0.429688 20.976562 L 0.429688 31.023438 C 0.429688 33.625 2.261719 35.796875 4.707031 36.320312 L 4.707031 38.582031 C 4.707031 39.765625 5.667969 40.726562 6.855469 40.726562 L 16.433594 40.726562 C 16.917969 42.242188 18.304688 43.414062 19.953125 43.5 C 22.9375 43.660156 31.109375 39.566406 38.9375 44.101562 C 41.0625 45.332031 42.601562 47.050781 43.800781 49.203125 C 43.976562 49.515625 44.863281 50.898438 45 51.515625 C 45.140625 50.898438 46.027344 49.515625 46.199219 49.203125 C 47.402344 47.050781 48.941406 45.332031 51.066406 44.101562 C 58.882812 39.570312 67.097656 43.660156 70.050781 43.5 C 71.695312 43.414062 73.085938 42.242188 73.570312 40.726562 L 83.148438 40.726562 C 84.335938 40.726562 85.296875 39.765625 85.296875 38.582031 L 85.296875 36.320312 C 87.742188 35.796875 89.574219 33.625 89.574219 31.023438 L 89.574219 20.976562 C 89.574219 18.375 87.742188 16.203125 85.296875 15.679688 " fill-opacity="1" fill-rule="nonzero"/></g><path fill="#caa169" d="M 30.628906 39.28125 C 34.164062 39.28125 37.410156 40.121094 40.28125 41.785156 C 42.148438 42.867188 43.695312 44.28125 45 46.097656 C 46.308594 44.28125 47.855469 42.867188 49.722656 41.785156 C 52.589844 40.125 55.839844 39.28125 59.378906 39.28125 C 62.445312 39.28125 65.238281 39.902344 67.28125 40.359375 C 68.320312 40.589844 69.390625 40.828125 69.871094 40.828125 C 69.882812 40.828125 69.894531 40.828125 69.90625 40.828125 C 70.398438 40.800781 70.855469 40.421875 71.019531 39.910156 L 71.617188 38.050781 L 82.617188 38.050781 L 82.617188 34.15625 L 84.734375 33.703125 C 85.988281 33.433594 86.894531 32.308594 86.894531 31.023438 L 86.894531 20.976562 C 86.894531 19.691406 85.988281 18.566406 84.734375 18.296875 L 82.617188 17.84375 L 82.617188 13.949219 L 71.617188 13.949219 L 71.019531 12.089844 C 70.855469 11.578125 70.398438 11.199219 69.90625 11.171875 C 69.894531 11.171875 69.882812 11.171875 69.871094 11.171875 C 69.390625 11.171875 68.320312 11.410156 67.28125 11.640625 C 65.238281 12.09375 62.445312 12.71875 59.378906 12.71875 C 55.839844 12.71875 52.589844 11.875 49.722656 10.214844 C 47.855469 9.132812 46.308594 7.71875 45 5.898438 C 43.695312 7.71875 42.144531 9.132812 40.28125 10.214844 C 37.410156 11.875 34.164062 12.71875 30.628906 12.71875 C 27.574219 12.71875 24.785156 12.097656 22.75 11.644531 C 21.703125 11.414062 20.625 11.171875 20.132812 11.171875 C 20.121094 11.171875 20.109375 11.171875 20.097656 11.171875 C 19.605469 11.199219 19.148438 11.578125 18.980469 12.089844 L 18.382812 13.949219 L 7.851562 13.949219 C 7.59375 13.949219 7.386719 14.160156 7.386719 14.414062 L 7.386719 17.84375 L 5.269531 18.296875 C 4.015625 18.566406 3.105469 19.691406 3.105469 20.976562 L 3.105469 31.023438 C 3.105469 32.308594 4.015625 33.433594 5.269531 33.703125 L 7.386719 34.15625 L 7.386719 38.050781 L 18.382812 38.050781 L 18.980469 39.910156 C 19.148438 40.421875 19.605469 40.800781 20.097656 40.828125 C 20.109375 40.828125 20.121094 40.828125 20.132812 40.828125 C 20.625 40.828125 21.707031 40.585938 22.75 40.355469 C 24.785156 39.902344 27.574219 39.28125 30.628906 39.28125 Z M 45 47.207031 L 44.742188 46.824219 C 43.4375 44.90625 41.871094 43.4375 39.964844 42.332031 C 37.191406 40.722656 34.050781 39.910156 30.628906 39.910156 C 27.644531 39.910156 24.894531 40.523438 22.886719 40.96875 C 21.757812 41.21875 20.695312 41.457031 20.132812 41.457031 C 20.109375 41.457031 20.085938 41.457031 20.066406 41.457031 C 19.316406 41.414062 18.625 40.859375 18.382812 40.101562 L 17.925781 38.679688 L 6.753906 38.679688 L 6.753906 34.664062 L 5.136719 34.316406 C 3.59375 33.988281 2.476562 32.601562 2.476562 31.023438 L 2.476562 20.976562 C 2.476562 19.398438 3.59375 18.011719 5.136719 17.679688 L 6.753906 17.335938 L 6.753906 14.414062 C 6.753906 13.8125 7.246094 13.320312 7.851562 13.320312 L 17.925781 13.320312 L 18.382812 11.898438 C 18.625 11.140625 19.316406 10.582031 20.066406 10.542969 C 20.085938 10.542969 20.109375 10.542969 20.132812 10.542969 C 20.695312 10.542969 21.757812 10.777344 22.886719 11.03125 C 24.894531 11.476562 27.644531 12.089844 30.628906 12.089844 C 34.050781 12.089844 37.191406 11.273438 39.964844 9.667969 C 41.871094 8.5625 43.433594 7.09375 44.742188 5.171875 L 45 4.789062 L 45.261719 5.171875 C 46.566406 7.09375 48.128906 8.5625 50.039062 9.667969 C 52.808594 11.273438 55.953125 12.085938 59.378906 12.085938 C 62.375 12.085938 65.132812 11.472656 67.144531 11.027344 C 68.265625 10.777344 69.324219 10.542969 69.871094 10.542969 C 69.894531 10.542969 69.917969 10.542969 69.9375 10.542969 C 70.6875 10.582031 71.378906 11.140625 71.621094 11.898438 L 72.078125 13.320312 L 83.25 13.320312 L 83.25 17.335938 L 84.867188 17.679688 C 86.40625 18.011719 87.527344 19.398438 87.527344 20.976562 L 87.527344 31.023438 C 87.527344 32.601562 86.40625 33.988281 84.867188 34.316406 L 83.25 34.664062 L 83.25 38.679688 L 72.078125 38.679688 L 71.621094 40.101562 C 71.378906 40.859375 70.6875 41.414062 69.9375 41.457031 C 69.917969 41.457031 69.894531 41.457031 69.871094 41.457031 C 69.324219 41.457031 68.265625 41.222656 67.144531 40.972656 C 65.132812 40.523438 62.375 39.914062 59.378906 39.914062 C 55.949219 39.914062 52.808594 40.726562 50.039062 42.332031 C 48.132812 43.4375 46.566406 44.90625 45.261719 46.824219 L 45 47.207031 " fill-opacity="1" fill-rule="nonzero"/><g fill="#caa169" fill-opacity="1"><g transform="translate(19.194462, 33.330869)"><g><path d="M 4.75 0.203125 C 3.5 0.203125 2.519531 -0.128906 1.8125 -0.796875 C 1.113281 -1.460938 0.765625 -2.40625 0.765625 -3.625 L 0.765625 -7.828125 C 0.765625 -9.046875 1.113281 -9.988281 1.8125 -10.65625 C 2.519531 -11.320312 3.5 -11.65625 4.75 -11.65625 C 6.019531 -11.65625 6.972656 -11.328125 7.609375 -10.671875 C 8.242188 -10.023438 8.5625 -9.078125 8.5625 -7.828125 L 8.5625 -5.53125 L 3.96875 -5.53125 L 3.96875 -3.328125 C 3.96875 -2.503906 4.226562 -2.09375 4.75 -2.09375 C 5.3125 -2.09375 5.59375 -2.460938 5.59375 -3.203125 L 5.59375 -4.421875 L 8.5625 -4.421875 L 8.5625 -3.3125 C 8.5625 -2.15625 8.226562 -1.28125 7.5625 -0.6875 C 6.894531 -0.09375 5.957031 0.203125 4.75 0.203125 Z M 5.59375 -7.03125 L 5.59375 -8.1875 C 5.59375 -8.601562 5.515625 -8.898438 5.359375 -9.078125 C 5.203125 -9.253906 4.992188 -9.34375 4.734375 -9.34375 C 4.484375 -9.34375 4.289062 -9.242188 4.15625 -9.046875 C 4.03125 -8.847656 3.96875 -8.5 3.96875 -8 L 3.96875 -7.03125 Z M 5.59375 -7.03125 "/></g></g></g><g fill="#caa169" fill-opacity="1"><g transform="translate(28.502114, 33.330869)"><g><path d="M 0.578125 -2.140625 L 4.5 -13.65625 L 0.75 -13.65625 L 0.75 -16.046875 L 7.984375 -16.046875 L 7.984375 -14.046875 L 4 -2.390625 L 8.03125 -2.390625 L 8.03125 0 L 0.578125 0 Z M 0.578125 -2.140625 "/></g></g></g><g fill="#caa169" fill-opacity="1"><g transform="translate(37.077034, 33.330869)"><g><path d="M 4.53125 0.203125 C 3.519531 0.203125 2.679688 -0.0234375 2.015625 -0.484375 C 1.347656 -0.941406 0.804688 -1.671875 0.390625 -2.671875 L 2.59375 -3.640625 C 2.800781 -3.117188 3.046875 -2.710938 3.328125 -2.421875 C 3.617188 -2.128906 3.9375 -1.984375 4.28125 -1.984375 C 4.78125 -1.984375 5.03125 -2.179688 5.03125 -2.578125 C 5.03125 -2.867188 4.929688 -3.128906 4.734375 -3.359375 C 4.535156 -3.585938 4.109375 -3.972656 3.453125 -4.515625 L 2.609375 -5.203125 C 1.921875 -5.785156 1.421875 -6.316406 1.109375 -6.796875 C 0.804688 -7.273438 0.65625 -7.84375 0.65625 -8.5 C 0.65625 -9.101562 0.816406 -9.644531 1.140625 -10.125 C 1.460938 -10.601562 1.894531 -10.976562 2.4375 -11.25 C 2.976562 -11.519531 3.5625 -11.65625 4.1875 -11.65625 C 5.125 -11.65625 5.90625 -11.398438 6.53125 -10.890625 C 7.15625 -10.378906 7.597656 -9.648438 7.859375 -8.703125 L 5.78125 -7.75 C 5.65625 -8.164062 5.453125 -8.539062 5.171875 -8.875 C 4.890625 -9.21875 4.585938 -9.390625 4.265625 -9.390625 C 4.046875 -9.390625 3.875 -9.328125 3.75 -9.203125 C 3.625 -9.085938 3.5625 -8.929688 3.5625 -8.734375 C 3.5625 -8.492188 3.691406 -8.234375 3.953125 -7.953125 C 4.210938 -7.679688 4.617188 -7.320312 5.171875 -6.875 L 5.984375 -6.15625 C 6.640625 -5.601562 7.144531 -5.085938 7.5 -4.609375 C 7.863281 -4.128906 8.046875 -3.5625 8.046875 -2.90625 C 8.046875 -2.257812 7.882812 -1.703125 7.5625 -1.234375 C 7.238281 -0.765625 6.804688 -0.40625 6.265625 -0.15625 C 5.734375 0.0820312 5.15625 0.203125 4.53125 0.203125 Z M 4.53125 0.203125 "/></g></g></g><g fill="#caa169" fill-opacity="1"><g transform="translate(45.473726, 33.330869)"><g><path d="M 4.5625 0.125 C 3.707031 0.125 3.050781 0.00390625 2.59375 -0.234375 C 2.132812 -0.484375 1.8125 -0.835938 1.625 -1.296875 C 1.4375 -1.765625 1.34375 -2.367188 1.34375 -3.109375 L 1.34375 -9.328125 L 0.234375 -9.328125 L 0.234375 -11.453125 L 1.34375 -11.453125 L 1.34375 -14.9375 L 4.609375 -14.9375 L 4.609375 -11.453125 L 6.234375 -11.453125 L 6.234375 -9.328125 L 4.609375 -9.328125 L 4.609375 -3.421875 C 4.609375 -3.109375 4.695312 -2.875 4.875 -2.71875 C 5.0625 -2.570312 5.3125 -2.5 5.625 -2.5 C 5.882812 -2.5 6.175781 -2.523438 6.5 -2.578125 L 6.5 -0.046875 C 5.863281 0.0664062 5.21875 0.125 4.5625 0.125 Z M 4.5625 0.125 "/></g></g></g><g fill="#caa169" fill-opacity="1"><g transform="translate(52.484169, 33.330869)"><g><path d="M 3.375 0.203125 C 2.8125 0.203125 2.328125 0.0664062 1.921875 -0.203125 C 1.523438 -0.472656 1.222656 -0.820312 1.015625 -1.25 C 0.816406 -1.6875 0.71875 -2.132812 0.71875 -2.59375 C 0.71875 -3.476562 0.941406 -4.203125 1.390625 -4.765625 C 1.835938 -5.335938 2.375 -5.78125 3 -6.09375 C 3.625 -6.414062 4.429688 -6.75 5.421875 -7.09375 L 5.421875 -8.234375 C 5.421875 -8.566406 5.367188 -8.816406 5.265625 -8.984375 C 5.171875 -9.160156 5 -9.25 4.75 -9.25 C 4.5 -9.25 4.320312 -9.171875 4.21875 -9.015625 C 4.113281 -8.859375 4.054688 -8.632812 4.046875 -8.34375 L 3.96875 -7.515625 L 0.953125 -7.625 C 1.003906 -9 1.363281 -10.015625 2.03125 -10.671875 C 2.707031 -11.328125 3.710938 -11.65625 5.046875 -11.65625 C 6.171875 -11.65625 7.03125 -11.335938 7.625 -10.703125 C 8.21875 -10.078125 8.515625 -9.242188 8.515625 -8.203125 L 8.515625 -2.859375 C 8.515625 -1.691406 8.582031 -0.738281 8.71875 0 L 5.828125 0 C 5.703125 -0.882812 5.613281 -1.425781 5.5625 -1.625 C 5.40625 -1.09375 5.140625 -0.65625 4.765625 -0.3125 C 4.398438 0.03125 3.9375 0.203125 3.375 0.203125 Z M 4.515625 -1.984375 C 4.847656 -1.984375 5.148438 -2.175781 5.421875 -2.5625 L 5.421875 -5.6875 C 4.828125 -5.34375 4.378906 -4.984375 4.078125 -4.609375 C 3.773438 -4.234375 3.625 -3.773438 3.625 -3.234375 C 3.625 -2.847656 3.703125 -2.539062 3.859375 -2.3125 C 4.015625 -2.09375 4.234375 -1.984375 4.515625 -1.984375 Z M 4.515625 -1.984375 "/></g></g></g><g fill="#caa169" fill-opacity="1"><g transform="translate(61.910636, 33.330869)"><g><path d="M 1.328125 1.09375 C 1.960938 1.09375 2.425781 1.019531 2.71875 0.875 C 3.019531 0.738281 3.171875 0.488281 3.171875 0.125 C 3.171875 -0.207031 3.03125 -0.847656 2.75 -1.796875 L 0.0625 -11.453125 L 3.09375 -11.453125 L 4.53125 -4.828125 L 5.625 -11.453125 L 8.671875 -11.453125 L 6.046875 0.28125 C 5.796875 1.40625 5.335938 2.191406 4.671875 2.640625 C 4.015625 3.097656 3.144531 3.328125 2.0625 3.328125 L 1.328125 3.328125 Z M 1.328125 1.09375 "/></g></g></g></svg>